<?xml version="1.0" standalone="no"?><!DOCTYPE svg PUBLIC "-//W3C//DTD SVG 1.1//EN" "http://www.w3.org/Graphics/SVG/1.1/DTD/svg11.dtd"><svg t="1510202332522" class="icon" style="" viewBox="0 0 1024 1024" version="1.1" xmlns="http://www.w3.org/2000/svg" p-id="1145" xmlns:xlink="http://www.w3.org/1999/xlink" width="200" height="200"><defs><style type="text/css"></style></defs><path d="M10.836 420.195a34.916 34.916 0 1 0 69.832 0 34.916 34.916 0 1 0-69.832 0zM161.336 532.167a34.916 34.916 0 1 0 69.832 0 34.916 34.916 0 1 0-69.832 0zM747.08 220.332c-3.01-0.602-6.02-1.204-9.03-1.204H358.792c-18.662 0-33.712 15.05-33.712 33.712s15.05 33.711 33.712 33.711h175.182c-32.508 27.09-59.598 60.802-77.658 99.932H189.028c-18.662 0-33.712 15.05-33.712 33.712s15.05 33.712 33.712 33.712h244.411c-3.01 14.448-4.816 29.498-5.418 45.15H321.467c-18.662 0-33.712 15.05-33.712 33.712 0 18.662 15.05 33.712 33.712 33.712h111.37c25.284 136.052 144.48 238.993 287.756 238.993 161.937 0 292.571-131.235 292.571-292.571 0-153.51-116.788-278.725-266.083-292.571zM686.28 390.697c15.05 0.602 27.692 1.204 37.926 1.204h83.677c13.244 0 25.886-0.602 39.13-1.204v19.264c-13.244-0.602-25.886-1.204-39.13-1.204h-37.926c-2.407 12.04-4.213 24.682-6.02 37.926h67.424c-0.602 11.438-1.204 33.11-1.204 65.618 0 31.906 0.602 54.782 1.204 67.424h-22.876V464.14h-92.707v117.992h-21.672c0.602-13.244 1.204-35.518 1.204-67.424 0-33.11-0.602-55.384-1.204-67.424h48.16c1.806-13.244 2.408-25.886 3.612-37.926h-21.672c-9.03 0-21.672 0.602-37.926 1.204v-19.866z m-39.13 200.466c0 15.05-4.816 24.682-14.448 27.692-9.632 3.01-21.07 6.02-33.712 9.03-1.806-10.234-4.816-19.264-9.03-27.692 11.438 0 20.468-0.602 26.488-1.204s9.03-6.02 9.03-16.254V418.389c-15.05 0-27.692 0.602-37.926 1.204V400.33c9.03 0.602 18.06 1.204 27.692 1.204h33.11c9.03 0 18.662-0.602 28.896-1.204v19.264c-12.04-0.602-22.274-1.204-30.1-1.204v172.774z m90.902 22.876c-14.448 12.04-33.712 22.274-57.19 30.702-3.01-8.428-8.428-16.254-16.254-24.08 21.672-4.816 38.528-10.836 51.17-18.06 12.642-7.826 21.07-16.856 24.682-28.294 3.612-10.836 6.02-24.682 7.224-40.334s1.204-31.906 0.602-48.762c9.03 1.806 18.06 2.408 26.487 3.612-2.408 8.428-3.612 19.866-4.816 34.916-0.602 15.05-2.407 30.702-6.02 46.956-3.01 16.856-11.437 31.304-25.885 43.344z m95.115 33.712c-13.244-13.846-24.08-24.08-33.11-31.304s-19.264-14.448-30.1-21.07c7.826-6.02 13.846-12.04 18.06-17.458 6.622 5.418 16.254 12.642 28.896 21.672 12.04 9.03 24.08 18.06 35.518 27.692-7.826 6.622-13.846 13.244-19.264 20.468z" fill="#009AEA" p-id="1146"></path></svg>